<svg width="48" height="48" viewBox="0 0 48 48" fill="none" xmlns="http://www.w3.org/2000/svg">
<g clip-path="url(#clip0_21_1021)">
<path d="M38.3379 13.376C37.3623 6.33594 31.3037 0.89917 24 0.89917C16.6992 0.89917 10.6421 6.33228 9.66357 13.3789C7.5454 13.8242 5.6001 14.8708 4.04883 16.4236C1.92188 18.5505 0.75 21.385 0.75 24.4041C0.75 30.6238 5.80958 35.6841 12.0293 35.6841H35.9707C38.9707 35.6841 41.8023 34.5151 43.9585 32.3779C46.0811 30.2356 47.25 27.4041 47.25 24.4041C47.25 18.946 43.4736 14.4417 38.3379 13.376ZM40.7769 29.1963C39.4834 30.478 37.7769 31.1841 35.9707 31.1841H12.0293C8.29101 31.1841 5.25 28.1423 5.25 24.4041C5.25 22.5869 5.95312 20.8826 7.23046 19.6052C8.45508 18.3806 10.0884 17.6826 11.8315 17.6387C13.0518 17.6079 14.0244 16.5942 14.0244 15.374C14.0244 9.87352 18.4995 5.39915 24 5.39915C29.5005 5.39915 33.9756 9.87352 33.9756 15.3894C33.9756 16.6103 34.9497 17.6086 36.1699 17.6387C39.8599 17.7295 42.75 20.7017 42.75 24.4041C42.75 26.2095 42.0439 27.9167 40.7769 29.1963ZM15.3941 38.7471C14.3071 38.1413 12.9375 38.5325 12.334 39.6186L10.0312 43.7561C9.42627 44.8423 9.81738 46.2119 10.9028 46.8162C11.25 47.0095 11.625 47.1011 11.9956 47.1011C12.7852 47.1011 13.5513 46.6836 13.9629 45.9446L16.2656 41.8071C16.8706 40.7209 16.4795 39.3513 15.3941 38.7471ZM26.2456 38.7471C25.1587 38.1413 23.7905 38.5325 23.1855 39.6186L20.8828 43.7561C20.2778 44.8423 20.6689 46.2119 21.7544 46.8162C22.1016 47.0095 22.4766 47.1011 22.8472 47.1011C23.6367 47.1011 24.4028 46.6836 24.8144 45.9446L27.1172 41.8071C27.7222 40.7209 27.3311 39.3513 26.2456 38.7471ZM37.0972 38.7471C36.0103 38.1413 34.6406 38.5325 34.0371 39.6186L31.7344 43.7561C31.1294 44.8423 31.5205 46.2119 32.606 46.8162C32.9531 47.0095 33.3281 47.1011 33.6987 47.1011C34.4883 47.1011 35.2544 46.6836 35.666 45.9446L37.9688 41.8071C38.5737 40.7209 38.1826 39.3513 37.0972 38.7471Z" fill="#226DFF"/>
</g>
<defs>
<clipPath id="clip0_21_1021">
<rect width="48" height="48" fill="white"/>
</clipPath>
</defs>
</svg>
