<svg width="48" height="48" viewBox="0 0 48 48" fill="none" xmlns="http://www.w3.org/2000/svg">
<path d="M7 18C7.39556 18 7.78224 17.8827 8.11114 17.6629C8.44004 17.4432 8.69638 17.1308 8.84776 16.7654C8.99914 16.3999 9.03874 15.9978 8.96157 15.6098C8.8844 15.2219 8.69392 14.8655 8.41421 14.5858C8.13451 14.3061 7.77814 14.1156 7.39018 14.0384C7.00222 13.9613 6.60009 14.0009 6.23463 14.1522C5.86918 14.3036 5.55682 14.56 5.33706 14.8889C5.1173 15.2178 5 15.6044 5 16C5 16.5304 5.21071 17.0391 5.58579 17.4142C5.96086 17.7893 6.46957 18 7 18ZM15 18H29C30.5913 18 32.1174 17.3679 33.2426 16.2426C34.3679 15.1174 35 13.5913 35 12C35 10.4087 34.3679 8.88258 33.2426 7.75736C32.1174 6.63214 30.5913 6 29 6C27.9479 6.00435 26.9146 6.27989 26 6.8C25.7708 6.93066 25.5698 7.10537 25.4084 7.31406C25.247 7.52276 25.1285 7.76131 25.0598 8.01599C24.991 8.27067 24.9733 8.53644 25.0076 8.798C25.042 9.05956 25.1278 9.31173 25.26 9.54C25.3923 9.76751 25.5683 9.96666 25.7777 10.126C25.9872 10.2854 26.226 10.4019 26.4805 10.4688C26.7351 10.5357 27.0003 10.5517 27.2611 10.5158C27.5218 10.48 27.7729 10.3931 28 10.26C28.3077 10.0944 28.6507 10.0053 29 10C29.5304 10 30.0391 10.2107 30.4142 10.5858C30.7893 10.9609 31 11.4696 31 12C31 12.5304 30.7893 13.0391 30.4142 13.4142C30.0391 13.7893 29.5304 14 29 14H15C14.4696 14 13.9609 14.2107 13.5858 14.5858C13.2107 14.9609 13 15.4696 13 16C13 16.5304 13.2107 17.0391 13.5858 17.4142C13.9609 17.7893 14.4696 18 15 18ZM7 26H21C21.5304 26 22.0391 25.7893 22.4142 25.4142C22.7893 25.0391 23 24.5304 23 24C23 23.4696 22.7893 22.9609 22.4142 22.5858C22.0391 22.2107 21.5304 22 21 22H7C6.46957 22 5.96086 22.2107 5.58579 22.5858C5.21071 22.9609 5 23.4696 5 24C5 24.5304 5.21071 25.0391 5.58579 25.4142C5.96086 25.7893 6.46957 26 7 26ZM41 18C41.3956 18 41.7822 17.8827 42.1111 17.6629C42.44 17.4432 42.6964 17.1308 42.8478 16.7654C42.9991 16.3999 43.0387 15.9978 42.9616 15.6098C42.8844 15.2219 42.6939 14.8655 42.4142 14.5858C42.1345 14.3061 41.7781 14.1156 41.3902 14.0384C41.0022 13.9613 40.6001 14.0009 40.2346 14.1522C39.8692 14.3036 39.5568 14.56 39.3371 14.8889C39.1173 15.2178 39 15.6044 39 16C39 16.5304 39.2107 17.0391 39.5858 17.4142C39.9609 17.7893 40.4696 18 41 18ZM37 22H29C28.4696 22 27.9609 22.2107 27.5858 22.5858C27.2107 22.9609 27 23.4696 27 24C27 24.5304 27.2107 25.0391 27.5858 25.4142C27.9609 25.7893 28.4696 26 29 26H37C37.5304 26 38.0391 26.2107 38.4142 26.5858C38.7893 26.9609 39 27.4696 39 28C39 28.5304 38.7893 29.0391 38.4142 29.4142C38.0391 29.7893 37.5304 30 37 30C36.4696 30 35.9609 30.2107 35.5858 30.5858C35.2107 30.9609 35 31.4696 35 32C35 32.5304 35.2107 33.0391 35.5858 33.4142C35.9609 33.7893 36.4696 34 37 34C38.5913 34 40.1174 33.3679 41.2426 32.2426C42.3679 31.1174 43 29.5913 43 28C43 26.4087 42.3679 24.8826 41.2426 23.7574C40.1174 22.6321 38.5913 22 37 22ZM25 30H17C16.4696 30 15.9609 30.2107 15.5858 30.5858C15.2107 30.9609 15 31.4696 15 32C15 32.5304 15.2107 33.0391 15.5858 33.4142C15.9609 33.7893 16.4696 34 17 34H25C25.5304 34 26.0391 34.2107 26.4142 34.5858C26.7893 34.9609 27 35.4696 27 36C27 36.5304 26.7893 37.0391 26.4142 37.4142C26.0391 37.7893 25.5304 38 25 38C24.6507 37.9947 24.3077 37.9056 24 37.74C23.7724 37.5953 23.5178 37.4981 23.2516 37.4543C22.9855 37.4106 22.7132 37.4211 22.4512 37.4853C22.1892 37.5494 21.9429 37.6659 21.7271 37.8278C21.5113 37.9896 21.3305 38.1934 21.1955 38.4269C21.0605 38.6605 20.9742 38.9189 20.9416 39.1867C20.9091 39.4544 20.9311 39.726 21.0062 39.9851C21.0814 40.2441 21.2082 40.4853 21.379 40.6941C21.5497 40.9029 21.761 41.075 22 41.2C22.9146 41.7201 23.9479 41.9956 25 42C26.5913 42 28.1174 41.3679 29.2426 40.2426C30.3679 39.1174 31 37.5913 31 36C31 34.4087 30.3679 32.8826 29.2426 31.7574C28.1174 30.6321 26.5913 30 25 30ZM9 30H7C6.46957 30 5.96086 30.2107 5.58579 30.5858C5.21071 30.9609 5 31.4696 5 32C5 32.5304 5.21071 33.0391 5.58579 33.4142C5.96086 33.7893 6.46957 34 7 34H9C9.53043 34 10.0391 33.7893 10.4142 33.4142C10.7893 33.0391 11 32.5304 11 32C11 31.4696 10.7893 30.9609 10.4142 30.5858C10.0391 30.2107 9.53043 30 9 30Z" fill="#226DFF"/>
</svg>
